<?xml version="1.0" encoding="utf-8"?>
<!-- Generator: Adobe Illustrator 24.0.0, SVG Export Plug-In . SVG Version: 6.00 Build 0)  -->
<svg version="1.1" id="Layer_1" xmlns="http://www.w3.org/2000/svg" xmlns:xlink="http://www.w3.org/1999/xlink" x="0px" y="0px"
	 viewBox="0 0 50 50" style="enable-background:new 0 0 50 50;" xml:space="preserve">
<style type="text/css">
	.st0{fill:#FFFFFF;}
</style>
<path class="st0" d="M36,2c-3.5,0-6.7,1.6-8.9,4H6.3C4,6,2,8,2,10.3v32.9c0,0.1,0,0.2,0,0.3v0.1C2,46,4,48,6.3,48h33.3
	c2.4,0,4.3-2,4.3-4.3v-0.1c0-0.1,0-0.2,0-0.3V23.4c2.1-2.8,4-5.5,4-9.4C48,7.4,42.6,2,36,2z M36,4c5.5,0,10,4.5,10,10
	c0,3.4-1.7,5.7-3.9,8.6c-2.1,2.8-4.6,6.2-6.1,11.3c-1.5-5.1-4-8.5-6.1-11.3c-0.8-1.1-1.6-2.1-2.2-3.1c0,0,0,0,0,0c0,0,0,0,0-0.1
	c0-0.2-0.1-0.3-0.2-0.4c-0.9-1.5-1.4-3.1-1.4-5C26,8.5,30.5,4,36,4z M6.3,8h19.3c-1,1.8-1.6,3.8-1.6,6c0,2.1,0.6,3.9,1.4,5.6L4,41
	V10.3C4,9,5,8,6.3,8z M12.1,10C8.8,10,6,12.7,6,16.1s2.8,6.1,6.1,6.1c5.3,0,6.3-4.8,5.8-7.2h-5.8v2.3h3.3c-0.4,1.4-1.6,2.4-3.3,2.4
	c-2,0-3.7-1.7-3.7-3.7s1.7-3.7,3.7-3.7c0.9,0,1.7,0.3,2.4,0.9l1.7-1.7C15.1,10.6,13.7,10,12.1,10z M36,10c-2.2,0-4,1.8-4,4
	s1.8,4,4,4s4-1.8,4-4S38.2,10,36,10z M36,12c1.1,0,2,0.9,2,2c0,1.1-0.9,2-2,2s-2-0.9-2-2C34,12.9,34.9,12,36,12z M26.5,21.3
	c0.6,0.8,1.1,1.7,1.8,2.5c0,0,0,0,0,0L6.2,46C5,45.9,4.1,45,4,43.8L26.5,21.3z M29.5,25.5c1.4,2,2.9,4.1,3.9,6.9L28,27L29.5,25.5z
	 M42,26.2V41l-4.7-4.6c0-0.1,0.1-0.2,0.1-0.2c0.2-0.4,0.1-0.7,0.2-1C38.7,31.3,40.3,28.5,42,26.2z M26.6,28.4L42,43.8
	c-0.1,1.2-1,2.1-2.2,2.2L24.4,30.6L26.6,28.4z M23,32l14,14H9L23,32z"/>
</svg>
